<?xml version="1.0" standalone="no"?>
<!DOCTYPE svg PUBLIC "-//W3C//DTD SVG 20010904//EN"
 "http://www.w3.org/TR/2001/REC-SVG-20010904/DTD/svg10.dtd">
<svg version="1.0" xmlns="http://www.w3.org/2000/svg"
 width="3000.000000pt" height="3000.000000pt" viewBox="0 0 3000.000000 3000.000000"
 preserveAspectRatio="xMidYMid meet">

<g transform="translate(0.000000,3000.000000) scale(0.100000,-0.100000)"
fill="#000000" stroke="none">
<path d="M13087 29409 c-173 -42 -300 -127 -354 -238 -46 -92 -40 -208 32
-708 32 -227 56 -415 53 -419 -4 -3 -89 -23 -190 -44 -989 -206 -1885 -499
-2763 -901 -218 -100 -597 -290 -784 -393 -146 -81 -159 -86 -240 -96 -195
-24 -368 -63 -611 -140 -308 -97 -551 -148 -965 -200 -179 -22 -212 -37 -267
-115 -27 -39 -31 -59 -92 -522 l-64 -481 -43 -38 c-859 -763 -1546 -1542
-2154 -2443 -657 -973 -1158 -1985 -1521 -3076 -360 -1082 -561 -2111 -636
-3260 -8 -128 -13 -411 -13 -785 0 -597 7 -775 46 -1195 129 -1403 508 -2818
1100 -4110 247 -540 627 -1226 913 -1650 39 -58 40 -62 37 -135 -4 -121 -29
-294 -67 -460 -54 -237 -72 -347 -89 -533 -8 -95 -24 -229 -35 -300 -20 -134
-35 -354 -45 -677 -8 -225 -5 -204 -84 -630 -72 -384 -104 -595 -126 -826 -35
-377 -93 -810 -190 -1426 -31 -191 -66 -434 -80 -540 -51 -402 -115 -1217
-118 -1509 -2 -153 -2 -156 25 -196 34 -52 84 -82 146 -90 42 -5 81 4 253 55
112 33 224 66 249 73 28 7 133 12 281 13 l235 1 44 29 c74 48 281 265 346 361
118 174 140 233 189 525 20 118 65 330 100 470 129 517 198 851 300 1447 35
208 85 491 110 628 75 411 297 1529 305 1539 5 4 68 -49 142 -119 151 -145
456 -414 630 -557 1210 -992 2575 -1748 4033 -2234 1082 -360 2111 -561 3260
-636 270 -18 1300 -18 1570 0 1149 75 2178 276 3260 636 2112 703 4028 1977
5505 3661 1579 1801 2613 3997 2995 6361 26 159 87 633 100 772 7 69 9 73 29
67 11 -3 246 -8 521 -12 558 -6 562 -6 624 56 31 31 47 63 88 183 83 234 129
412 202 778 134 664 125 638 322 949 31 49 34 61 34 127 0 64 -3 77 -30 116
-25 35 -48 52 -131 92 l-102 50 -4 76 c-5 88 -32 145 -93 199 -119 104 -236
117 -755 81 -381 -25 -720 -44 -725 -39 -2 2 -15 94 -30 204 -105 804 -283
1569 -549 2370 -827 2483 -2434 4677 -4560 6225 -1058 770 -2217 1368 -3441
1776 -1083 360 -2129 564 -3260 635 -225 15 -1144 18 -1440 6 l-190 -8 -53
218 c-73 297 -146 533 -190 617 -58 111 -128 179 -240 232 -112 53 -237 96
-344 118 -109 23 -310 20 -411 -5z m357 -190 c62 -11 176 -48 286 -94 127 -53
179 -132 254 -386 130 -445 194 -755 371 -1803 48 -280 97 -546 110 -590 17
-57 34 -183 60 -426 42 -402 115 -984 214 -1715 172 -1273 268 -1984 347
-2580 46 -352 96 -708 109 -792 14 -83 28 -214 32 -291 l6 -140 60 82 c86 115
420 619 633 956 100 157 284 447 409 645 460 725 1336 2094 1563 2440 57 88
155 230 217 315 62 85 145 211 185 280 40 69 94 157 120 195 26 39 102 160
170 270 127 208 339 526 387 583 l28 32 80 -26 c44 -14 149 -39 235 -55 464
-89 663 -140 738 -186 67 -41 97 -104 95 -198 l-1 -72 -89 -134 c-49 -74 -965
-1477 -2036 -3119 -1593 -2442 -1954 -2990 -1986 -3012 -31 -21 -51 -50 -95
-138 -38 -75 -94 -162 -173 -266 -151 -200 -220 -305 -389 -599 -75 -132 -176
-298 -224 -370 -94 -142 -214 -331 -365 -580 -163 -267 -524 -785 -547 -785
-20 0 -174 108 -219 153 -78 77 -84 100 -69 243 10 95 10 208 1 540 -6 230
-13 509 -16 619 -5 200 3 366 30 569 13 98 13 111 -2 140 -9 17 -22 35 -29 39
-49 29 -64 158 -65 572 -1 397 14 464 153 685 l66 106 -428 3094 c-236 1702
-472 3406 -525 3785 -81 590 -135 975 -211 1520 -8 61 -21 145 -29 187 -29
156 17 230 174 283 139 46 209 51 365 24z m2496 -1184 c688 -44 1452 -155
2035 -295 66 -16 160 -38 209 -50 440 -102 1127 -324 1638 -528 616 -247 1272
-575 1843 -922 2239 -1361 3992 -3388 5020 -5803 244 -575 504 -1352 625
-1873 12 -49 34 -143 50 -209 82 -340 193 -976 225 -1282 l6 -62 -33 -5 c-52
-8 -724 -27 -1048 -29 l-295 -2 -8 65 c-19 155 -100 618 -147 837 -113 528
-280 1097 -465 1583 -37 96 -77 201 -88 234 l-22 58 207 202 c129 125 212 214
221 236 9 19 61 265 117 545 109 544 112 572 71 639 -42 68 -336 311 -539 446
-138 92 -166 106 -752 390 -559 270 -611 297 -783 400 -90 53 -248 153 -352
222 l-190 125 -171 184 c-826 887 -1772 1619 -2850 2205 -109 59 -201 109
-203 110 -1 2 13 29 33 61 20 32 41 74 46 93 15 51 12 207 -4 268 -30 110
-108 201 -219 253 -84 39 -365 109 -636 159 -121 22 -264 54 -318 71 -81 25
-110 30 -169 26 -99 -5 -128 -26 -220 -155 -42 -59 -78 -109 -80 -111 -2 -3
-86 21 -187 52 -787 244 -1496 387 -2277 462 -498 47 -1114 67 -1465 48 -88
-5 -161 -9 -162 -9 0 1 -35 201 -77 446 -41 245 -92 533 -111 640 -55 292 -54
268 -14 274 58 10 157 12 739 14 412 1 630 -2 800 -13z m-2991 -870 c52 -372
91 -678 89 -680 -3 -3 -101 -25 -219 -50 -476 -101 -1058 -272 -1517 -444
l-134 -50 -86 31 c-103 36 -150 59 -273 134 -125 76 -296 160 -485 240 -87 36
-242 105 -344 152 -189 86 -363 141 -454 143 -22 0 -59 3 -80 7 -39 7 -36 9
210 129 432 211 750 347 1199 513 419 154 976 326 1320 405 55 13 141 33 190
45 101 25 452 98 475 99 13 1 31 -110 109 -674z m-3396 -730 c102 -18 186 -47
333 -116 60 -28 204 -92 319 -141 244 -105 373 -168 505 -248 182 -110 289
-154 491 -204 l94 -23 205 -409 c226 -451 285 -561 531 -994 217 -383 352
-639 554 -1046 l164 -330 -45 -120 c-104 -273 -131 -424 -174 -954 -43 -539
-82 -765 -158 -915 -87 -174 -250 -419 -405 -612 -39 -49 -97 -131 -128 -184
-66 -108 -331 -482 -467 -657 -50 -64 -197 -247 -327 -407 -263 -321 -364
-456 -421 -560 -35 -63 -39 -77 -42 -162 -8 -168 14 -269 169 -797 60 -203
114 -408 134 -512 65 -335 178 -835 325 -1434 383 -1560 537 -2224 1051 -4540
373 -1681 787 -3542 795 -3575 4 -17 -13 -36 -78 -90 -46 -39 -166 -151 -268
-250 -204 -199 -380 -355 -401 -355 -24 0 -235 95 -309 139 -84 50 -192 148
-225 205 -13 23 -44 115 -69 205 -86 303 -814 2215 -1838 4826 -425 1084 -850
2175 -1263 3245 -140 360 -270 695 -290 743 -20 49 -57 167 -81 264 -45 179
-80 277 -130 360 l-29 48 -3 -30 c-27 -300 -117 -819 -336 -1920 -287 -1447
-499 -2544 -801 -4155 -438 -2335 -590 -3128 -900 -4690 -178 -895 -227 -1157
-344 -1845 -90 -521 -178 -942 -291 -1380 -26 -104 -65 -284 -84 -400 -20
-115 -43 -235 -52 -265 -42 -141 -144 -290 -305 -445 l-103 -98 -204 6 -204 5
-126 -33 c-70 -19 -185 -52 -257 -74 -71 -22 -131 -38 -133 -36 -6 6 13 345
39 690 38 527 80 896 154 1355 86 534 167 1126 185 1345 25 302 79 663 175
1150 33 168 36 203 50 530 16 374 25 481 55 670 10 66 21 163 25 215 9 141 32
284 76 479 44 188 79 406 79 487 0 28 31 275 70 550 38 274 105 769 150 1099
82 615 100 745 220 1590 39 270 133 958 210 1530 225 1662 431 3169 745 5445
303 2196 701 5147 911 6765 24 187 54 416 66 510 l23 169 175 23 c375 49 639
103 900 184 328 102 509 140 760 159 85 6 184 15 220 20 108 13 242 11 333 -5z
m-2892 -2676 c-77 -580 -146 -1092 -152 -1139 -11 -84 -13 -86 -79 -170 -543
-689 -1035 -1494 -1386 -2268 -533 -1176 -848 -2361 -963 -3627 -41 -451 -46
-549 -46 -1005 0 -456 5 -554 46 -1005 105 -1149 375 -2235 822 -3306 l36 -85
-84 -625 c-177 -1307 -228 -1674 -235 -1682 -9 -10 -189 282 -348 563 -193
340 -453 868 -617 1253 -244 575 -504 1352 -625 1873 -12 49 -34 143 -50 209
-140 583 -251 1347 -295 2035 -21 321 -21 1219 0 1540 44 688 155 1452 295
2035 16 66 38 160 50 209 121 521 381 1298 625 1873 164 385 424 913 617 1253
485 855 1036 1613 1692 2327 317 345 828 842 834 811 2 -8 -60 -489 -137
-1069z m16876 -1080 c419 -277 470 -305 1263 -689 501 -242 517 -251 649 -338
117 -77 308 -227 420 -329 l63 -58 -97 -490 -97 -490 -137 -135 c-161 -160
-638 -620 -698 -674 l-42 -37 -486 345 -485 346 -192 -12 c-220 -13 -500 -1
-763 31 -438 55 -765 74 -884 51 -60 -11 -71 -11 -105 5 -20 10 -51 37 -68 61
l-31 43 -45 -62 c-63 -86 -190 -215 -297 -302 -153 -123 -320 -228 -960 -600
-282 -164 -359 -212 -475 -298 -170 -126 -457 -433 -693 -741 -262 -342 -348
-440 -772 -875 -123 -126 -228 -243 -238 -264 -50 -106 -87 -316 -117 -677
-33 -393 -80 -678 -191 -1155 -105 -452 -119 -530 -119 -681 0 -135 12 -172
111 -350 49 -89 110 -209 135 -265 53 -122 46 -108 167 -324 236 -424 691
-1323 762 -1505 60 -156 87 -210 125 -253 16 -19 30 -38 30 -41 0 -4 -11 -24
-25 -44 -49 -72 -31 -78 76 -27 109 52 164 54 323 16 136 -33 255 -84 339
-146 59 -42 115 -59 150 -46 21 8 50 -1 179 -59 274 -123 642 -268 783 -310
40 -12 41 -11 505 200 532 242 588 265 800 325 342 97 408 143 788 545 l165
175 251 158 c138 87 251 159 252 160 3 2 119 426 209 757 37 135 100 364 142
510 84 292 163 593 157 599 -2 2 -24 -2 -49 -8 -25 -6 -141 -27 -258 -47 -117
-19 -401 -73 -632 -119 -461 -93 -830 -157 -1000 -175 -147 -15 -374 -17 -630
-6 -302 13 -283 15 -1270 -154 -562 -96 -969 -128 -1296 -101 -131 11 -150 15
-215 46 -125 61 -203 149 -248 278 -20 58 -21 79 -19 347 2 296 19 587 54 895
55 495 86 624 171 720 45 52 94 73 210 90 57 8 139 24 183 35 146 35 632 56
1520 65 536 5 721 10 1195 35 107 6 488 15 845 20 358 5 684 12 725 15 138 10
1041 55 1420 70 397 16 866 29 1610 45 736 16 1185 36 1865 81 354 24 478 22
545 -8 73 -33 84 -51 76 -128 -5 -54 -3 -71 14 -105 25 -49 93 -100 180 -136
36 -15 69 -31 73 -34 5 -4 -17 -45 -48 -91 -88 -132 -162 -289 -191 -408 -14
-57 -59 -271 -100 -475 -41 -204 -88 -420 -104 -481 -33 -123 -137 -436 -149
-448 -21 -21 -1098 19 -1546 58 -253 22 -639 38 -730 30 l-81 -6 -53 -147
c-284 -783 -542 -1542 -782 -2297 -549 -1725 -870 -2658 -1308 -3795 l-179
-465 -876 -3 c-482 -1 -876 0 -876 3 0 5 321 1171 398 1448 11 37 17 67 15 67
-3 0 -143 -67 -312 -149 -325 -158 -432 -203 -576 -244 -154 -43 -207 -50
-333 -44 -153 9 -270 33 -478 100 -229 74 -345 97 -487 97 -62 0 -208 9 -323
19 -115 11 -283 23 -374 26 -116 5 -224 17 -365 41 -110 18 -337 54 -505 79
-353 52 -462 73 -655 122 -196 50 -505 156 -599 206 -95 51 -195 145 -251 237
-61 102 -112 168 -200 260 -45 47 -151 171 -235 275 -85 105 -274 334 -420
510 -388 467 -545 667 -778 987 -81 110 -94 133 -102 185 -109 656 -143 871
-160 1022 -24 214 -57 410 -110 656 -63 294 -65 317 -64 595 1 457 47 735 204
1235 169 537 236 837 371 1639 85 507 170 870 240 1015 74 157 142 236 326
384 65 52 134 112 155 133 20 22 82 122 139 224 120 217 197 334 283 427 34
38 95 109 136 158 41 50 147 164 236 255 126 129 177 189 232 275 39 61 97
150 129 200 72 111 242 290 337 352 38 26 147 79 241 119 205 86 257 112 411
205 192 116 323 188 604 334 359 187 567 304 740 417 346 226 579 350 896 475
175 70 291 104 969 288 266 72 664 190 860 254 73 24 108 29 189 30 l100 1
243 -161z m3408 -8249 c94 -6 277 -19 409 -30 131 -11 244 -20 252 -20 19 0
18 -30 -6 -229 -65 -534 -148 -1025 -240 -1406 -16 -66 -38 -160 -50 -209
-102 -440 -324 -1127 -528 -1638 -247 -616 -575 -1272 -922 -1843 -1361 -2239
-3388 -3992 -5803 -5020 -575 -244 -1352 -504 -1873 -625 -49 -12 -143 -34
-209 -50 -583 -140 -1347 -251 -2035 -295 -480 -31 -1411 -18 -1890 26 -532
48 -1231 160 -1685 269 -66 16 -160 38 -209 50 -521 121 -1298 381 -1873 625
-385 164 -913 424 -1253 617 -940 533 -1769 1150 -2541 1893 l-126 121 39 199
c21 110 93 479 159 820 66 341 122 626 125 634 3 10 16 0 42 -30 305 -361 855
-905 1257 -1245 1529 -1293 3385 -2151 5363 -2479 374 -62 671 -96 1202 -137
219 -17 1021 -17 1240 0 531 41 828 75 1202 137 2001 332 3871 1203 5413 2521
170 146 352 313 541 497 l141 137 549 0 c356 0 562 4 587 11 58 16 108 73 145
165 445 1121 918 2470 1397 3984 293 926 695 2114 860 2543 9 21 64 22 320 7z"/>
<path d="M9430 23047 c-29 -204 -117 -605 -304 -1387 -192 -804 -204 -858
-296 -1345 -28 -149 -57 -294 -65 -324 l-14 -54 232 7 232 6 78 78 c106 105
188 202 362 432 125 164 222 283 418 515 27 31 38 76 152 631 l123 598 -22 46
c-13 25 -33 77 -46 115 -31 96 -40 112 -129 229 -43 56 -105 143 -139 192 -33
49 -71 101 -84 116 -47 54 -152 129 -203 143 -43 13 -168 34 -201 35 -6 0 -27
11 -47 24 l-35 24 -12 -81z"/>
</g>
</svg>
